<svg width="469" height="469" viewBox="0 0 469 469" fill="none" xmlns="http://www.w3.org/2000/svg">
<rect width="469" height="469" rx="45" fill="#5D13E7"/>
<path fill-rule="evenodd" clip-rule="evenodd" d="M231.488 56.563C259.615 56.563 285.495 66.182 306.018 82.31L273.76 114.059C261.872 106.373 248.377 102.529 233.277 102.529C212.322 102.529 194.318 110.074 179.263 125.164C164.209 140.034 156.681 157.967 156.681 178.961C156.681 200.173 164.209 218.325 179.263 233.414C194.318 248.285 212.322 255.72 233.277 255.72C254.435 255.72 272.439 248.285 287.29 233.414C302.345 218.325 309.872 200.173 309.872 178.961C309.872 174.619 309.55 170.408 308.906 166.327L343.592 132.409C349.15 146.281 352.208 161.424 352.208 177.282C352.208 189.583 350.368 201.454 346.949 212.635H347.034C323.697 282.582 296.18 328.774 233.213 410.098C231.711 408.113 230.228 406.153 228.762 404.217L228.613 404.02L228.61 404.017L228.528 403.908C181.94 342.366 153.212 304.417 122.634 229.538C120.2 224.477 118.109 219.22 116.39 213.797C116.241 213.411 116.092 213.023 115.943 212.635H116.028C112.609 201.454 110.769 189.583 110.769 177.282C110.769 110.611 164.817 56.563 231.488 56.563ZM234.544 169.164L330.531 74.2481L359.365 102.448L234.544 225.082L173.179 165.066L201.767 137.107L234.544 169.164Z" fill="white"/>
</svg>
