<svg width="174" height="21" viewBox="0 0 174 21" fill="none" xmlns="http://www.w3.org/2000/svg">
<path d="M0.657471 19.9999V0.92919H4.68951V16.6756H12.8653V19.9999H0.657471Z" fill="#764AF1"/>
<path d="M32.3178 10.4645C32.3178 12.5442 31.9236 14.3134 31.1352 15.7723C30.353 17.2312 29.2853 18.3455 27.9319 19.1153C26.5848 19.8788 25.0701 20.2606 23.3877 20.2606C21.693 20.2606 20.172 19.8757 18.8249 19.106C17.4778 18.3362 16.4132 17.2219 15.631 15.763C14.8488 14.3041 14.4577 12.538 14.4577 10.4645C14.4577 8.38489 14.8488 6.61564 15.631 5.15678C16.4132 3.69792 17.4778 2.5867 18.8249 1.82313C20.172 1.05335 21.693 0.668457 23.3877 0.668457C25.0701 0.668457 26.5848 1.05335 27.9319 1.82313C29.2853 2.5867 30.353 3.69792 31.1352 5.15678C31.9236 6.61564 32.3178 8.38489 32.3178 10.4645ZM28.2299 10.4645C28.2299 9.11743 28.0282 7.98138 27.6246 7.0564C27.2273 6.13142 26.6655 5.42993 25.9392 4.95192C25.2129 4.47391 24.3624 4.2349 23.3877 4.2349C22.4131 4.2349 21.5626 4.47391 20.8363 4.95192C20.11 5.42993 19.545 6.13142 19.1415 7.0564C18.7442 7.98138 18.5456 9.11743 18.5456 10.4645C18.5456 11.8117 18.7442 12.9477 19.1415 13.8727C19.545 14.7977 20.11 15.4992 20.8363 15.9772C21.5626 16.4552 22.4131 16.6942 23.3877 16.6942C24.3624 16.6942 25.2129 16.4552 25.9392 15.9772C26.6655 15.4992 27.2273 14.7977 27.6246 13.8727C28.0282 12.9477 28.2299 11.8117 28.2299 10.4645Z" fill="#764AF1"/>
<path d="M35.3046 19.9999V0.92919H42.8286C44.2688 0.92919 45.498 1.18682 46.5161 1.70207C47.5404 2.21112 48.3195 2.93435 48.8534 3.87174C49.3935 4.80293 49.6635 5.89862 49.6635 7.15883C49.6635 8.42524 49.3904 9.51473 48.8441 10.4273C48.2978 11.3337 47.5063 12.0289 46.4695 12.5132C45.439 12.9974 44.1912 13.2395 42.7262 13.2395H37.6884V9.99895H42.0743C42.8441 9.99895 43.4835 9.89342 43.9926 9.68235C44.5016 9.47128 44.8803 9.15467 45.1286 8.73254C45.3831 8.3104 45.5104 7.78583 45.5104 7.15883C45.5104 6.52562 45.3831 5.99174 45.1286 5.55719C44.8803 5.12263 44.4985 4.79361 43.9833 4.57013C43.4742 4.34044 42.8317 4.22559 42.0557 4.22559H39.3366V19.9999H35.3046ZM45.6035 11.3212L50.3433 19.9999H45.8922L41.2549 11.3212H45.6035Z" fill="#764AF1"/>
<path d="M52.5129 19.9999V0.92919H65.3633V4.25353H56.545V8.79772H64.7022V12.1221H56.545V16.6756H65.4006V19.9999H52.5129Z" fill="#764AF1"/>
<path d="M68.5689 0.92919H73.5415L78.7934 13.7423H79.0168L84.2687 0.92919H89.2413V19.9999H85.3303V7.58718H85.172L80.2367 19.9068H77.5735L72.6382 7.54062H72.4799V19.9999H68.5689V0.92919Z" fill="#764AF1"/>
<path d="M96.5953 0.92919V19.9999H92.5633V0.92919H96.5953Z" fill="#764AF1"/>
<path d="M99.9127 19.9999V0.92919H107.437C108.883 0.92919 110.115 1.20544 111.133 1.75795C112.152 2.30424 112.928 3.06471 113.461 4.03935C114.002 5.00779 114.272 6.12521 114.272 7.39163C114.272 8.65804 113.998 9.77547 113.452 10.7439C112.906 11.7123 112.114 12.4666 111.078 13.0067C110.047 13.5468 108.799 13.8168 107.334 13.8168H102.539V10.5856H106.682C107.458 10.5856 108.098 10.4521 108.601 10.1852C109.11 9.91204 109.488 9.53646 109.737 9.05845C109.991 8.57423 110.118 8.01863 110.118 7.39163C110.118 6.75842 109.991 6.20591 109.737 5.73411C109.488 5.2561 109.11 4.88673 108.601 4.626C108.092 4.35906 107.446 4.22559 106.664 4.22559H103.945V19.9999H99.9127Z" fill="#764AF1"/>
<path d="M127.236 6.41388C127.162 5.66272 126.842 5.07918 126.277 4.66325C125.712 4.24732 124.945 4.03935 123.977 4.03935C123.319 4.03935 122.763 4.13247 122.31 4.31871C121.857 4.49874 121.509 4.75016 121.267 5.07297C121.031 5.39578 120.913 5.76205 120.913 6.17177C120.901 6.51321 120.972 6.81119 121.127 7.06571C121.289 7.32024 121.509 7.54062 121.789 7.72685C122.068 7.90688 122.391 8.06518 122.757 8.20176C123.123 8.33213 123.514 8.44387 123.93 8.53699L125.644 8.94671C126.476 9.13295 127.239 9.38126 127.934 9.69166C128.63 10.0021 129.232 10.3838 129.741 10.837C130.25 11.2902 130.644 11.8241 130.924 12.4387C131.209 13.0532 131.355 13.7578 131.361 14.5525C131.355 15.7195 131.057 16.7314 130.467 17.5881C129.884 18.4386 129.039 19.0997 127.934 19.5716C126.836 20.0371 125.51 20.2699 123.958 20.2699C122.419 20.2699 121.078 20.034 119.936 19.5622C118.799 19.0904 117.912 18.392 117.272 17.4671C116.639 16.5359 116.307 15.3843 116.276 14.0124H120.178C120.221 14.6518 120.404 15.1857 120.727 15.614C121.056 16.0361 121.494 16.3559 122.04 16.5731C122.593 16.7842 123.216 16.8897 123.912 16.8897C124.595 16.8897 125.187 16.7904 125.69 16.5918C126.199 16.3931 126.594 16.1168 126.873 15.763C127.152 15.4091 127.292 15.0025 127.292 14.5431C127.292 14.1148 127.165 13.7547 126.91 13.463C126.662 13.1712 126.296 12.9229 125.811 12.718C125.333 12.5132 124.747 12.3269 124.051 12.1593L121.975 11.6378C120.367 11.2467 119.097 10.6353 118.166 9.8034C117.235 8.97154 116.773 7.85101 116.779 6.44181C116.773 5.28714 117.08 4.27836 117.701 3.41546C118.328 2.55256 119.187 1.879 120.28 1.39478C121.373 0.910566 122.614 0.668457 124.005 0.668457C125.42 0.668457 126.656 0.910566 127.711 1.39478C128.772 1.879 129.598 2.55256 130.188 3.41546C130.778 4.27836 131.082 5.27783 131.1 6.41388H127.236Z" fill="#764AF1"/>
<path d="M145.853 0.92919H149.885V13.314C149.885 14.7045 149.553 15.9213 148.888 16.9642C148.23 18.0072 147.309 18.8204 146.123 19.4039C144.937 19.9813 143.556 20.2699 141.979 20.2699C140.396 20.2699 139.012 19.9813 137.826 19.4039C136.64 18.8204 135.718 18.0072 135.06 16.9642C134.402 15.9213 134.073 14.7045 134.073 13.314V0.92919H138.105V12.9694C138.105 13.6958 138.264 14.3414 138.58 14.9063C138.903 15.4712 139.356 15.9151 139.94 16.2379C140.523 16.5607 141.203 16.7221 141.979 16.7221C142.761 16.7221 143.441 16.5607 144.018 16.2379C144.602 15.9151 145.052 15.4712 145.369 14.9063C145.691 14.3414 145.853 13.6958 145.853 12.9694V0.92919Z" fill="#764AF1"/>
<path d="M153.202 0.92919H158.175L163.427 13.7423H163.65L168.902 0.92919H173.875V19.9999H169.964V7.58718H169.805L164.87 19.9068H162.207L157.271 7.54062H157.113V19.9999H153.202V0.92919Z" fill="#764AF1"/>
</svg>
