<svg width="44" height="64" viewBox="0 0 44 64" fill="none" xmlns="http://www.w3.org/2000/svg">
<path fill-rule="evenodd" clip-rule="evenodd" d="M40.1429 33.1469C42.576 29.7408 44 25.6152 44 21.1697C44 9.47799 34.1503 0 22 0C9.84974 0 0 9.47799 0 21.1697C0 23.6428 0.440725 26.0169 1.25072 28.2232L1.22223 28.2261C1.26903 28.3251 1.3163 28.4246 1.36402 28.5245C1.87075 29.8405 2.50955 31.0948 3.26492 32.2725C6.63131 38.5954 11.1744 45.8169 14.9461 51.8122L14.9462 51.8123L14.9462 51.8124C18.722 57.8142 21.7248 62.5872 22 63.9998C22.0108 63.7808 22.0206 63.5577 22.0292 63.3307C22.0487 63.5591 22.0639 63.7823 22.0747 64.0001C22.3521 62.5764 25.3272 57.796 29.0653 51.7895C32.6226 46.0735 36.871 39.2471 40.1429 33.1469Z" fill="#764AF1"/>
<ellipse cx="22" cy="21.5" rx="13" ry="13.5" fill="black" fill-opacity="0.1"/>
</svg>
